<svg width="13.183594" height="13.183594" viewBox="0 0 13.1836 13.1836" fill="none" xmlns="http://www.w3.org/2000/svg" xmlns:xlink="http://www.w3.org/1999/xlink">
	<desc>
			Created with Pixso.
	</desc>
	<defs/>
	<path id="Vector" d="M12.89 0.3C12.79 0.2 12.68 0.13 12.56 0.08C12.44 0.03 12.31 0 12.18 0C12.05 0 11.92 0.03 11.8 0.08C11.68 0.13 11.57 0.2 11.48 0.3L6.59 5.18L1.7 0.29C1.6 0.19 1.5 0.12 1.37 0.07C1.25 0.02 1.12 0 0.99 0C0.86 0 0.73 0.02 0.61 0.07C0.49 0.12 0.38 0.19 0.29 0.29C0.19 0.38 0.12 0.49 0.07 0.61C0.02 0.73 0 0.86 0 0.99C0 1.12 0.02 1.25 0.07 1.37C0.12 1.5 0.19 1.6 0.29 1.7L5.18 6.59L0.29 11.48C0.19 11.57 0.12 11.68 0.07 11.8C0.02 11.92 0 12.05 0 12.18C0 12.31 0.02 12.44 0.07 12.56C0.12 12.68 0.19 12.79 0.29 12.89C0.38 12.98 0.49 13.05 0.61 13.1C0.73 13.15 0.86 13.18 0.99 13.18C1.12 13.18 1.25 13.15 1.37 13.1C1.5 13.05 1.6 12.98 1.7 12.89L6.59 8L11.48 12.89C11.57 12.98 11.68 13.05 11.8 13.1C11.92 13.15 12.05 13.18 12.18 13.18C12.31 13.18 12.44 13.15 12.56 13.1C12.68 13.05 12.79 12.98 12.89 12.89C12.98 12.79 13.05 12.68 13.1 12.56C13.15 12.44 13.18 12.31 13.18 12.18C13.18 12.05 13.15 11.92 13.1 11.8C13.05 11.68 12.98 11.57 12.89 11.48L8 6.59L12.89 1.7C13.27 1.32 13.27 0.68 12.89 0.3Z" fill="#373737" fill-opacity="1.000000" fill-rule="nonzero"/>
</svg>
